# xmcd CD database file generated by Grip 3.1.4
# 
# Track frame offsets:
#       150
#       20063
#       33349
# 
# Disc length: 713 seconds
# 
# Revision: 1
# Processed by: cddbd v1.5.1PL0 Copyright (c) Steve Scherf et al.
# Submitted via: Grip 3.1.4
# 
DISCID=1d02c703
DTITLE=The Jerms - disco
DYEAR=2004
DGENRE=Folk/Rock
TTITLE0=disco
TTITLE1=state of affairs
TTITLE2=butterfly
EXTD=
EXTT0=
EXTT1=
EXTT2=
PLAYORDER=
